<?xml version="1.0" standalone="no"?>
<!DOCTYPE svg PUBLIC "-//W3C//DTD SVG 20010904//EN"
 "http://www.w3.org/TR/2001/REC-SVG-20010904/DTD/svg10.dtd">
<svg version="1.0" xmlns="http://www.w3.org/2000/svg"
 width="140.000000pt" height="140.000000pt" viewBox="0 0 140.000000 140.000000"
 preserveAspectRatio="xMidYMid meet">
<metadata>
Created by potrace 1.16, written by Peter Selinger 2001-2019
</metadata>
<g transform="translate(0.000000,140.000000) scale(0.100000,-0.100000)"
fill="#000000" stroke="none">
<path d="M724 1352 c-109 -58 -154 -109 -194 -220 -21 -59 -24 -61 -49 -54
-14 4 -71 7 -126 7 -86 -1 -108 -5 -155 -26 -56 -26 -120 -74 -120 -89 0 -5
26 3 57 18 79 37 205 39 271 4 66 -35 119 -88 149 -150 24 -49 28 -69 28 -142
-1 -136 -56 -227 -172 -285 -50 -25 -70 -30 -138 -30 -70 0 -89 4 -143 31
l-63 31 33 -34 c82 -84 247 -119 386 -81 7 2 24 -24 41 -64 51 -119 105 -177
209 -224 62 -28 89 -32 47 -5 -46 28 -114 107 -138 159 -14 33 -21 69 -21 117
-1 91 33 164 109 234 67 60 133 85 230 86 160 0 295 -119 314 -277 l7 -63 7
46 c8 50 -6 163 -27 213 -7 17 -36 59 -63 92 l-50 60 40 44 c80 90 121 222 99
315 l-10 40 -1 -40 c-3 -94 -89 -208 -199 -262 -117 -58 -267 -30 -362 68 -65
67 -94 131 -93 209 1 97 33 172 104 242 31 32 54 58 51 58 -4 -1 -30 -13 -58
-28z"/>
<path d="M660 1008 c0 -7 6 -24 13 -36 10 -20 21 -24 67 -26 82 -4 161 -52
196 -118 11 -20 22 -28 42 -28 45 0 53 11 36 47 -28 57 -83 111 -146 142 -52
26 -73 31 -135 31 -52 0 -73 -4 -73 -12z"/>
<path d="M453 876 c-28 -43 -53 -129 -53 -181 0 -60 25 -135 58 -174 l29 -35
18 28 c18 27 18 30 1 74 -32 84 -35 111 -20 171 8 31 21 66 29 78 13 19 12 24
-6 47 -11 14 -23 26 -27 26 -4 0 -17 -15 -29 -34z"/>
<path d="M945 590 c-21 -67 -122 -130 -208 -130 -53 0 -54 -1 -64 -35 -10 -32
-9 -36 11 -41 37 -9 144 14 197 42 56 31 99 75 129 133 17 34 18 40 4 45 -32
12 -63 6 -69 -14z"/>
</g>
</svg>
